<?xml version="1.0" encoding="UTF-8"?>
<svg id="Layer_1" xmlns="http://www.w3.org/2000/svg" version="1.1" viewBox="0 0 715.01 715.01">
  <!-- Generator: Adobe Illustrator 29.6.1, SVG Export Plug-In . SVG Version: 2.1.1 Build 9)  -->
  <defs>
    <style>
      .st0 {
        fill: #fec40c;
      }

      .st1 {
        fill: #fdf7e0;
      }

      .st2 {
        fill: #1f2022;
      }

      .st3 {
        fill: #ef2921;
      }

      .st4 {
        fill: #008843;
      }
    </style>
  </defs>
  <path class="st2" d="M715.01,357.5c0,197.44-160.06,357.5-357.5,357.5S0,554.95,0,357.5,160.06,0,357.5,0s357.5,160.06,357.5,357.5ZM36.27,356.77c.16,69.47,21.57,134.14,62.59,189.91,7.09,9.64,15.81,18.38,22.43,28.09l150.55-154c-5.59-9.2-11.3-17.93-14.84-28.23-3.46-10.1-6.66-25.18-6.73-35.77-.44-71.37,68.5-121.65,136.78-100.28,3.17.99,17.69,7.92,19.06,7.14l133.15-171.37c.42-2.03-.5-1.21-1.28-1.68-25.78-15.65-47.19-28.83-76.19-38.81C253.85-19.87,35.78,138.77,36.27,356.77ZM371.27,355.77c-51.3,51.2-102.24,102.76-153.47,154.03-16.91,16.92-35.09,32.94-51.55,50.45-3.36,3.58-27.01,28.97-27.01,31.03,0,1.55,9.95,10.18,12.02,12.01,206.57,182.54,530.07,23.29,527.01-247.51-.82-72.57-26.95-147.42-73.03-203.47-1.57-1.91-7.49-9.55-9.3-9.38-1.7.15-22.48,19.41-25.69,22.34-67.91,62.14-133.88,125.53-198.99,190.51Z"/>
  <path class="st0" d="M678.27,355.77h-307c65.1-64.98,131.08-128.37,198.99-190.51,3.21-2.94,23.99-22.19,25.69-22.34,1.81-.16,7.73,7.48,9.3,9.38,46.08,56.05,72.21,130.9,73.03,203.47Z"/>
  <g>
    <path class="st3" d="M36.27,356.77c-.5-218,217.57-376.64,425.52-305.02,29,9.99,50.41,23.17,76.19,38.81.78.47,1.7-.34,1.28,1.68l-133.15,171.37c-1.36.78-15.88-6.14-19.06-7.14-68.29-21.37-137.23,28.91-136.78,100.28H36.27Z"/>
    <path class="st0" d="M250.27,356.77c.07,10.59,3.26,25.67,6.73,35.77,3.53,10.3,9.25,19.03,14.84,28.23l-150.55,154c-6.63-9.71-15.34-18.45-22.43-28.09-41.02-55.77-62.43-120.44-62.59-189.91h214Z"/>
  </g>
  <g>
    <path class="st4" d="M678.27,355.77c3.05,270.81-320.45,430.06-527.01,247.51-2.07-1.83-12.02-10.46-12.02-12.01,0-2.06,23.64-27.45,27.01-31.03,16.46-17.5,34.64-33.52,51.55-50.45,51.23-51.27,102.18-102.83,153.47-154.03h307ZM463.36,529.68c-3.51-20.53-10.22-40.49-14.78-60.71-4.8-21.24-6.9-43.59-13.58-64.42-2.98-9.29-6.36-20.45-18.54-17.1-5.68,1.56-7.56,6.66-9.12,11.88-13.36,44.72-17.9,96.89-29.37,142.63-.69,2.73-1.26,8.18-3.29,9.73-2.8,2.14-4.28.39-5.46-2.36-3.94-9.18-5.08-24.41-8.21-34.79-3.5-11.62-9.54-26.27-14.55-37.45-2.93-6.53-7.62-20.49-14.89-22.11-22.34-4.99-22.77,17.07-29.43,32.15-1.54,3.49-9.16,19.07-11.45,20.55-5.05,3.26-36.9-.26-45.85,1.15-9.77,1.54-11.11,18.32.01,19.88s40.7,1.16,51.97.1c16.99-1.59,15.61-26.65,24-36.99,3.86-4.76,5.73-.37,7.64,3.27,11.97,22.89,17.84,57.51,24.29,82.71,2.29,8.94,6.45,29.74,17.01,30.99,13.24,1.57,16.67-8.65,19.79-19.26,12.11-41.18,15.33-90.16,26.01-131.99.59-2.31,2.27-8.91,5.78-6.33,3.25,13.81,7.35,27.64,10.45,41.54,3.67,16.43,8.75,58.49,18.96,70.04,6.29,7.12,16.5,7.8,23.55,1.49,7.73-6.92,13.98-35.95,17.94-47.06,1.44-4.03,10.59-28.67,12.69-29.36,1.18-.39,2.26-.16,3.35.38,5.94,2.95,4.81,25.28,20.58,27.43,13.97,1.9,37.41.14,51.91-.72,1.49-.09,3.16,1.07,4.83.85.39-.05,4.93-5.06,5.23-5.99,2.54-7.93-1.81-15.28-10.18-16.01-2.92-.26-5.14.98-7.83,1-13.52.1-27.24.66-40.56-1.52-2.12-1.23-8.75-30.21-13.54-36.46-5.39-7.04-18.18-7.83-24.48-1.59-5.83,5.77-14.35,32.72-17.23,41.77-3.18,10.01-4.83,20.61-8.5,30.5-.79,2.32-2.96,2.67-5.16,2.17Z"/>
    <path class="st1" d="M463.36,529.68c2.19.49,4.37.14,5.16-2.17,3.66-9.9,5.31-20.5,8.5-30.5,2.88-9.05,11.4-36,17.23-41.77,6.3-6.23,19.09-5.44,24.48,1.59,4.79,6.26,11.42,35.23,13.54,36.46,13.32,2.18,27.04,1.62,40.56,1.52,2.69-.02,4.92-1.26,7.83-1,8.37.74,12.72,8.08,10.18,16.01-.3.93-4.84,5.94-5.23,5.99-1.67.23-3.34-.94-4.83-.85-14.49.86-37.94,2.62-51.91.72-15.78-2.15-14.64-24.48-20.58-27.43-1.09-.54-2.16-.77-3.35-.38-2.11.69-11.26,25.34-12.69,29.36-3.97,11.11-10.21,40.14-17.94,47.06-7.05,6.31-17.27,5.63-23.55-1.49-10.2-11.55-15.29-53.62-18.96-70.04-3.11-13.9-7.2-27.74-10.45-41.54-3.51-2.58-5.19,4.02-5.78,6.33-10.68,41.82-13.9,90.81-26.01,131.99-3.12,10.61-6.55,20.83-19.79,19.26-10.55-1.25-14.72-22.05-17.01-30.99-6.45-25.2-12.32-59.82-24.29-82.71-1.9-3.64-3.78-8.03-7.64-3.27-8.39,10.34-7.02,35.4-24,36.99-11.27,1.06-41.19,1.41-51.97-.1s-9.78-18.34-.01-19.88c8.95-1.41,40.8,2.1,45.85-1.15,2.29-1.48,9.91-17.05,11.45-20.55,6.66-15.08,7.09-37.13,29.43-32.15,7.27,1.62,11.96,15.59,14.89,22.11,5.01,11.18,11.05,25.83,14.55,37.45,3.13,10.38,4.27,25.61,8.21,34.79,1.18,2.75,2.66,4.5,5.46,2.36,2.03-1.55,2.6-6.99,3.29-9.73,11.47-45.74,16.01-97.92,29.37-142.63,1.56-5.22,3.44-10.32,9.12-11.88,12.18-3.34,15.56,7.81,18.54,17.1,6.68,20.84,8.78,43.18,13.58,64.42,4.57,20.23,11.27,40.18,14.78,60.71Z"/>
  </g>
</svg>